<?xml version="1.0" encoding="UTF-8"?><svg id="Layer_1" xmlns="http://www.w3.org/2000/svg" xmlns:xlink="http://www.w3.org/1999/xlink" viewBox="0 0 274.36 200"><defs><style>.cls-1{fill:#333;}.cls-2{fill:#141414;}.cls-3{fill:url(#linear-gradient);}</style><linearGradient id="linear-gradient" x1="0" y1="100" x2="274.36" y2="100" gradientUnits="userSpaceOnUse"><stop offset="0" stop-color="#fff"/><stop offset="1" stop-color="#cacaca"/></linearGradient></defs><rect class="cls-3" width="274.36" height="200"/><g><g><path class="cls-1" d="m183.36,51.06v67.85h-92.36V51.06h92.36m4.12-4.12h-100.59v76.08h100.59V46.94h0Z"/><circle class="cls-1" cx="160.56" cy="72.52" r="9.33"/><path class="cls-1" d="m183.01,107.78l-17.19-15.69c-.41-.37-1.03-.35-1.41.04l-15.31,15.59-30.19-36.22c-.2-.23-.48-.37-.78-.37h0c-.3,0-.59.14-.78.37l-26.34,31.55c-.16.19-.25.43-.25.68v15.22c0,.58.46,1.05,1.03,1.05h90.53c.57,0,1.03-.47,1.03-1.05v-10.4c0-.3-.12-.58-.34-.78Z"/></g><g><path class="cls-2" d="m86.89,145.32v-2.5c0-4.02,2.05-5.54,4.56-5.54s4.54,1.52,4.54,5.54v2.5c0,4.02-2.05,5.54-4.54,5.54s-4.56-1.52-4.56-5.54Zm6.4,0v-2.5c0-2.42-.88-3.11-1.85-3.11s-1.86.69-1.86,3.11v2.5c0,2.42.9,3.11,1.86,3.11s1.85-.69,1.85-3.11Zm4.69,7.56v-16.21h2.69v16.21h-2.69Z"/><path class="cls-2" d="m103.43,150.36v-12.67h8.58v12.67h-8.58Zm2.69-2.45h3.19v-7.77h-3.19v7.77Zm8.23,4.97v-16.21h2.69v16.21h-2.69Z"/><path class="cls-2" d="m125.82,140.42c0,1.07-.12,2.11-.36,3.12l4.35,5.25-2.07,1.81-3.38-4.12c-.78,1.5-1.85,2.92-3.23,4.28l-1.95-1.83c2.69-2.74,3.92-5.32,3.92-8.51v-.19h-3.23v-2.45h9.27v2.45h-3.31v.19Zm4.9-3.75h2.69v16.21h-2.69v-16.21Z"/><path class="cls-2" d="m139.86,144.6h15.33v2.45h-6.32v2.23h-2.69v-2.23h-6.32v-2.45Zm1.09-2.92c3.19-.72,4.75-1.62,5.23-2.52h-4.38v-2.23h11.46v2.23h-4.35c-.05.29-.12.57-.22.83l5.42,1.67-.91,2.21-6.16-1.93c-1.17.81-2.92,1.45-5.35,1.93l-.72-2.19Zm3.38,6.52v2.24h9.42v2.43h-12.11v-4.68h2.69Z"/><path class="cls-2" d="m162.76,141.58v-4.06h2.66v12.84h-8.58v-12.84h2.66v4.06h3.26Zm-3.26,6.37h3.26v-3.97h-3.26v3.97Zm8.27-11.27h2.69v16.21h-2.69v-16.21Z"/><path class="cls-2" d="m187.91,145.88h-6.32v1.07h.66c2.57,0,4.14,1.29,4.14,3.05s-1.57,3.05-4.14,3.05h-4c-2.57,0-4.14-1.29-4.14-3.05s1.57-3.05,4.14-3.05h.66v-1.07h-6.32v-2.28h15.33v2.28Zm-14.22-4.78c3-.5,4.56-1.23,5.13-1.97h-4.3v-2.19h11.46v2.19h-4.35c-.05.21-.1.41-.19.62l5.37,1.31-.81,2.23-6.32-1.62c-1.17.72-2.92,1.26-5.33,1.62l-.66-2.19Zm8.01,8.06h-2.9c-1.43,0-2,.31-2,.83s.57.85,2,.85h2.9c1.43,0,2-.31,2-.85s-.57-.83-2-.83Z"/></g></g></svg>